<svg width="41" height="40" viewBox="0 0 41 40" fill="none" xmlns="http://www.w3.org/2000/svg">
<path d="M37.4917 27.55C37.9059 27.55 38.2417 27.2143 38.2417 26.8C38.2417 26.3858 37.9059 26.05 37.4917 26.05V27.55ZM35.3417 15.15H36.0917C36.0917 14.7538 35.7834 14.4259 35.3879 14.4015C34.9923 14.3771 34.6461 14.6646 34.5974 15.0579L35.3417 15.15ZM37.6841 18.55C38.0983 18.5542 38.4375 18.2218 38.4417 17.8076C38.4458 17.3934 38.1135 17.0543 37.6993 17.0501L37.6841 18.55ZM32.7917 17.05C32.3775 17.05 32.0417 17.3858 32.0417 17.8C32.0417 18.2143 32.3775 18.55 32.7917 18.55V17.05ZM37.7444 21.4482C38.1576 21.4191 38.4689 21.0606 38.4398 20.6474C38.4107 20.2342 38.0522 19.9228 37.639 19.9519L37.7444 21.4482ZM32.7917 19.95C32.3775 19.95 32.0417 20.2858 32.0417 20.7C32.0417 21.1143 32.3775 21.45 32.7917 21.45V19.95ZM37.6348 24.3229C38.0478 24.3543 38.4081 24.045 38.4395 23.6319C38.471 23.2189 38.1616 22.8586 37.7486 22.8272L37.6348 24.3229ZM32.7917 22.825C32.3775 22.825 32.0417 23.1608 32.0417 23.575C32.0417 23.9893 32.3775 24.325 32.7917 24.325V22.825ZM20.5667 6.80005L21.2204 6.43235C21.0893 6.19931 20.8441 6.05368 20.5767 6.05012C20.3093 6.04655 20.0603 6.18559 19.9231 6.41505L20.5667 6.80005ZM3.6167 26.05C3.20249 26.05 2.8667 26.3858 2.8667 26.8C2.8667 27.2143 3.20249 27.55 3.6167 27.55V26.05ZM12.6665 15.15L13.2987 14.7465C13.159 14.5276 12.916 14.3966 12.6564 14.4001C12.3967 14.4036 12.1574 14.5412 12.0236 14.7638L12.6665 15.15ZM14.1665 17.5L13.5343 17.9035C13.539 17.9108 13.5438 17.9181 13.5487 17.9252L14.1665 17.5ZM5.4417 29.275C5.02749 29.275 4.6917 29.6108 4.6917 30.025C4.6917 30.4393 5.02749 30.775 5.4417 30.775V29.275ZM7.8417 30.775C8.25591 30.775 8.5917 30.4393 8.5917 30.025C8.5917 29.6108 8.25591 29.275 7.8417 29.275V30.775ZM10.6917 29.275C10.2775 29.275 9.9417 29.6108 9.9417 30.025C9.9417 30.4393 10.2775 30.775 10.6917 30.775V29.275ZM28.7667 30.775C29.1809 30.775 29.5167 30.4393 29.5167 30.025C29.5167 29.6108 29.1809 29.275 28.7667 29.275V30.775ZM31.8167 29.275C31.4025 29.275 31.0667 29.6108 31.0667 30.025C31.0667 30.4393 31.4025 30.775 31.8167 30.775V29.275ZM35.1417 30.775C35.5559 30.775 35.8917 30.4393 35.8917 30.025C35.8917 29.6108 35.5559 29.275 35.1417 29.275V30.775ZM11.2667 32.4C10.8525 32.4 10.5167 32.7358 10.5167 33.15C10.5167 33.5643 10.8525 33.9 11.2667 33.9V32.4ZM23.8167 33.9C24.2309 33.9 24.5667 33.5643 24.5667 33.15C24.5667 32.7358 24.2309 32.4 23.8167 32.4V33.9ZM27.2417 32.4C26.8275 32.4 26.4917 32.7358 26.4917 33.15C26.4917 33.5643 26.8275 33.9 27.2417 33.9V32.4ZM30.3167 33.9C30.7309 33.9 31.0667 33.5643 31.0667 33.15C31.0667 32.7358 30.7309 32.4 30.3167 32.4V33.9ZM25.5417 15.617L24.8876 15.984L25.007 16.1969L25.2289 16.2987L25.5417 15.617ZM22.867 10.85L22.1253 10.7385L22.0871 10.9928L22.2129 11.217L22.867 10.85ZM35.3417 27.55H37.4917V26.05H35.3417V27.55ZM34.5974 15.0579C34.5871 15.1411 34.5808 15.2267 34.5785 15.3136L36.0779 15.3547C36.0791 15.3122 36.082 15.2746 36.086 15.2422L34.5974 15.0579ZM34.5785 15.3136C34.5747 15.4499 34.5804 15.5925 34.5959 15.7382L36.0875 15.5792C36.0787 15.4972 36.0761 15.4215 36.0779 15.3547L34.5785 15.3136ZM34.5959 15.7382C34.6568 16.3095 34.8782 16.999 35.3742 17.5613C35.8894 18.1453 36.6567 18.5396 37.6841 18.55L37.6993 17.0501C37.0827 17.0439 36.7236 16.8235 36.4991 16.569C36.2554 16.2927 36.1238 15.9199 36.0875 15.5792L34.5959 15.7382ZM34.5922 15.1218C34.5907 15.1616 34.5876 15.2061 34.5824 15.2544L36.0739 15.4139C36.0826 15.3329 36.0883 15.2541 36.0912 15.1783L34.5922 15.1218ZM34.5824 15.2544C34.5435 15.6186 34.4027 16.0893 34.1195 16.4505C33.8595 16.7822 33.4623 17.05 32.7917 17.05V18.55C33.9527 18.55 34.7744 18.0464 35.3001 17.3759C35.8026 16.7349 36.0142 15.9727 36.0739 15.4139L34.5824 15.2544ZM36.0917 18.85V15.6587H34.5917V18.85H36.0917ZM36.0917 15.6587V15.15H34.5917V15.6587H36.0917ZM34.6216 19.0597C34.7458 19.4862 35.0336 20.0892 35.5212 20.5852C36.0243 21.0969 36.7679 21.517 37.7444 21.4482L37.639 19.9519C37.1955 19.9831 36.86 19.8073 36.5909 19.5337C36.3064 19.2442 36.1293 18.8723 36.0618 18.6404L34.6216 19.0597ZM34.6312 18.61C34.4741 19.0748 33.8737 19.95 32.7917 19.95V21.45C34.7897 21.45 35.7926 19.8586 36.0522 19.0901L34.6312 18.61ZM36.0917 26.8V21.575H34.5917V26.8H36.0917ZM36.0917 21.575V18.85H34.5917V21.575H36.0917ZM34.592 21.5956C34.6047 22.0609 34.7896 22.6969 35.2684 23.2444C35.7647 23.812 36.537 24.2394 37.6348 24.3229L37.7486 22.8272C37.0064 22.7707 36.612 22.5023 36.3975 22.257C36.1655 21.9916 36.0953 21.6975 36.0914 21.5545L34.592 21.5956ZM34.6185 21.3762C34.4752 21.8973 33.8981 22.825 32.7917 22.825V24.325C34.8853 24.325 35.8415 22.5861 36.0649 21.7739L34.6185 21.3762ZM31.8167 27.55H35.3417V26.05H31.8167V27.55ZM32.4704 26.4324L21.2204 6.43235L19.913 7.16774L31.163 27.1677L32.4704 26.4324ZM3.6167 27.55H5.6667V26.05H3.6167V27.55ZM6.30958 27.1863L13.3094 15.5363L12.0236 14.7638L5.02382 26.4138L6.30958 27.1863ZM20.5667 27.55H31.8167V26.05H20.5667V27.55ZM12.0343 15.5536L13.5343 17.9035L14.7987 17.0965L13.2987 14.7465L12.0343 15.5536ZM13.5487 17.9252L19.9489 27.2252L21.1845 26.3749L14.7843 17.0748L13.5487 17.9252ZM19.9231 6.41505L13.5229 17.115L14.8101 17.885L21.2103 7.18505L19.9231 6.41505ZM5.6667 27.55H17.1777V26.05H5.6667V27.55ZM17.1777 27.55H20.5667V26.05H17.1777V27.55ZM5.4417 30.775H7.8417V29.275H5.4417V30.775ZM10.6917 30.775H28.7667V29.275H10.6917V30.775ZM31.8167 30.775H35.1417V29.275H31.8167V30.775ZM11.2667 33.9H23.8167V32.4H11.2667V33.9ZM27.2417 33.9H30.3167V32.4H27.2417V33.9ZM31.0167 11.525C31.0167 13.5961 29.3378 15.275 27.2667 15.275V16.775C30.1662 16.775 32.5167 14.4245 32.5167 11.525H31.0167ZM27.2667 7.77505C29.3378 7.77505 31.0167 9.45398 31.0167 11.525H32.5167C32.5167 8.62555 30.1662 6.27505 27.2667 6.27505V7.77505ZM27.2667 15.275C26.7346 15.275 26.3576 15.1662 25.8545 14.9354L25.2289 16.2987C25.8674 16.5917 26.4605 16.775 27.2667 16.775V15.275ZM23.6086 10.9616C23.8815 9.14764 25.3978 7.77505 27.2667 7.77505V6.27505C24.6238 6.27505 22.5038 8.22232 22.1253 10.7385L23.6086 10.9616ZM26.1958 15.25L23.5211 10.4831L22.2129 11.217L24.8876 15.984L26.1958 15.25Z" fill="#101623"/>
</svg>