<svg width="41" height="40" viewBox="0 0 41 40" fill="none" xmlns="http://www.w3.org/2000/svg">
<path d="M23.65 13.325H32.45V31.975H23.65M23.65 13.325V31.975M23.65 13.325V9H9.5V31.975H13.925M23.65 31.975H19.275M19.275 31.975V25.825H13.925V31.975M19.275 31.975H13.925" stroke="#101623" stroke-width="1.5" stroke-linecap="round" stroke-linejoin="round"/>
<path d="M20.1501 20.4251C20.1501 20.9221 19.7472 21.3251 19.2501 21.3251C18.753 21.3251 18.3501 20.9221 18.3501 20.4251C18.3501 19.928 18.753 19.5251 19.2501 19.5251C19.7472 19.5251 20.1501 19.928 20.1501 20.4251Z" fill="#101623"/>
<path d="M20.1501 16.8251C20.1501 17.3221 19.7472 17.7251 19.2501 17.7251C18.753 17.7251 18.3501 17.3221 18.3501 16.8251C18.3501 16.328 18.753 15.9251 19.2501 15.9251C19.7472 15.9251 20.1501 16.328 20.1501 16.8251Z" fill="#101623"/>
<path d="M20.1501 13.2251C20.1501 13.7221 19.7472 14.1251 19.2501 14.1251C18.753 14.1251 18.3501 13.7221 18.3501 13.2251C18.3501 12.728 18.753 12.3251 19.2501 12.3251C19.7472 12.3251 20.1501 12.728 20.1501 13.2251Z" fill="#101623"/>
<path d="M14.9001 20.4251C14.9001 20.9221 14.4972 21.3251 14.0001 21.3251C13.503 21.3251 13.1001 20.9221 13.1001 20.4251C13.1001 19.928 13.503 19.5251 14.0001 19.5251C14.4972 19.5251 14.9001 19.928 14.9001 20.4251Z" fill="#101623"/>
<path d="M14.9001 16.8251C14.9001 17.3221 14.4972 17.7251 14.0001 17.7251C13.503 17.7251 13.1001 17.3221 13.1001 16.8251C13.1001 16.328 13.503 15.9251 14.0001 15.9251C14.4972 15.9251 14.9001 16.328 14.9001 16.8251Z" fill="#101623"/>
<path d="M14.9001 13.2251C14.9001 13.7221 14.4972 14.1251 14.0001 14.1251C13.503 14.1251 13.1001 13.7221 13.1001 13.2251C13.1001 12.728 13.503 12.3251 14.0001 12.3251C14.4972 12.3251 14.9001 12.728 14.9001 13.2251Z" fill="#101623"/>
<path d="M29.0501 16.8251C29.0501 17.3221 28.6472 17.7251 28.1501 17.7251C27.653 17.7251 27.2501 17.3221 27.2501 16.8251C27.2501 16.328 27.653 15.9251 28.1501 15.9251C28.6472 15.9251 29.0501 16.328 29.0501 16.8251Z" fill="#101623"/>
<path d="M29.0501 20.4251C29.0501 20.9221 28.6472 21.3251 28.1501 21.3251C27.653 21.3251 27.2501 20.9221 27.2501 20.4251C27.2501 19.928 27.653 19.5251 28.1501 19.5251C28.6472 19.5251 29.0501 19.928 29.0501 20.4251Z" fill="#101623"/>
</svg>