<svg width="40" height="40" viewBox="0 0 40 40" fill="none" xmlns="http://www.w3.org/2000/svg">
<path d="M1.3501 31.2C1.3501 31.2 2.16126 29.4 3.8876 29.4C5.61394 29.4 6.18268 31.196 7.9001 31.2C9.62643 31.2039 10.2113 29.4 11.9376 29.4C13.6639 29.4 14.2327 31.196 15.9501 31.2C17.6764 31.2039 18.2613 29.4 19.9876 29.4C21.7139 29.4 22.2827 31.196 24.0001 31.2C25.7264 31.2039 26.3113 29.4 28.0376 29.4C29.7639 29.4 30.3327 31.196 32.0501 31.2C33.7764 31.2039 34.3613 29.4 36.0876 29.4C37.8139 29.4 38.6251 31.2 38.6251 31.2M1.3501 22.6C1.3501 22.6 2.16126 20.8 3.8876 20.8C5.61394 20.8 6.18268 22.596 7.9001 22.6C9.62643 22.6039 10.2113 20.8 11.9376 20.8C13.6639 20.8 14.2327 22.596 15.9501 22.6C17.6764 22.6039 18.2613 20.8 19.9876 20.8C20.2389 20.8 20.4657 20.838 20.6751 20.9031M38.6251 22.6C38.6251 22.6 37.8139 20.8 36.0876 20.8C34.3613 20.8 33.7764 22.6039 32.0501 22.6C30.3327 22.596 29.7639 20.8 28.0376 20.8C27.19 20.8 26.6176 21.2348 26.0501 21.6771M1.3501 26.7C1.3501 26.7 2.16126 24.9 3.8876 24.9C5.61394 24.9 6.18268 26.696 7.9001 26.7C9.62643 26.7039 10.2113 24.9 11.9376 24.9C13.6639 24.9 14.2327 26.696 15.9501 26.7C17.6764 26.7039 18.2613 24.9 19.9876 24.9C21.7139 24.9 22.2827 26.696 24.0001 26.7C25.7264 26.7039 26.3113 24.9 28.0376 24.9C29.7639 24.9 30.3327 26.696 32.0501 26.7C33.7764 26.7039 34.3613 24.9 36.0876 24.9C37.8139 24.9 38.6251 26.7 38.6251 26.7M20.6751 20.9031C21.9039 21.2849 22.5327 22.5966 24.0001 22.6C24.8639 22.602 25.4419 22.1513 26.0201 21.7005L26.0501 21.6771M20.6751 20.9031V18.125M20.6751 14.575L20.7001 11.95M20.6751 14.575H26.0501M20.6751 14.575H9.7251M20.6751 14.575V18.125M20.7001 11.95C20.7001 11.2206 20.4104 10.5211 19.8946 10.0054C19.3789 9.48968 18.6794 9.19995 17.9501 9.19995C17.2208 9.19995 16.5213 9.48968 16.0056 10.0054C15.4898 10.5211 15.2001 11.2206 15.2001 11.95M20.7001 11.95C20.7001 11.2206 20.8398 10.5211 21.3556 10.0054C21.8713 9.48968 22.5708 9.19995 23.3001 9.19995C24.0294 9.19995 24.7289 9.48968 25.2446 10.0054C25.7604 10.5211 26.0501 11.2206 26.0501 11.95V14.575M26.0501 14.575H29.5251M26.0501 14.575V18.125M26.0501 21.6771V18.125M20.6751 18.125H26.0501" stroke="#101623" stroke-width="1.5" stroke-linecap="round" stroke-linejoin="round"/>
</svg>