<svg width="40" height="40" viewBox="0 0 40 40" fill="none" xmlns="http://www.w3.org/2000/svg">
<path d="M26.3251 18.7H34.3751C34.4856 18.7 34.5751 18.7895 34.5751 18.9V33.25C34.5751 33.3604 34.4856 33.45 34.3751 33.45H26.3251M26.3251 18.7V7.42859M26.3251 18.7H14.7501M26.3251 7.42859L14.7501 10.3347M26.3251 7.42859L29.7251 6.57495M7.4001 12.1801L5.9751 12.525M7.4001 12.1801V24.975M7.4001 12.1801L14.7501 10.3347M14.7501 18.7V24.975M14.7501 18.7V10.3347M14.7501 33.45H7.6001C7.48964 33.45 7.4001 33.3604 7.4001 33.25V24.975M14.7501 33.45V24.975M14.7501 33.45H21.0251M14.7501 24.975H7.4001M21.0251 33.45V25.175C21.0251 25.0645 21.1146 24.975 21.2251 24.975H26.1251C26.2356 24.975 26.3251 25.0645 26.3251 25.175V33.45M21.0251 33.45H26.3251M31.0501 25.1C31.0501 25.3761 30.8262 25.6 30.5501 25.6C30.274 25.6 30.0501 25.3761 30.0501 25.1C30.0501 24.8238 30.274 24.6 30.5501 24.6C30.8262 24.6 31.0501 24.8238 31.0501 25.1ZM31.0501 29.3C31.0501 29.5761 30.8262 29.8 30.5501 29.8C30.274 29.8 30.0501 29.5761 30.0501 29.3C30.0501 29.0238 30.274 28.8 30.5501 28.8C30.8262 28.8 31.0501 29.0238 31.0501 29.3Z" stroke="#101623" stroke-width="1.5"/>
</svg>