<svg width="41" height="40" viewBox="0 0 41 40" fill="none" xmlns="http://www.w3.org/2000/svg">
<path d="M32.083 13.725V31.475H23.5518M32.083 13.725V8.52502H9.33301V13.725M32.083 13.725H26.3955H23.5518L20.708 10.8813L17.8643 13.725H15.0205H9.33301M9.33301 13.725V31.475H17.8643M23.5518 31.475V25.375H17.8643V31.475M23.5518 31.475H17.8643" stroke="#101623" stroke-width="1.5" stroke-linecap="round" stroke-linejoin="round"/>
<path d="M28.808 25.35C28.808 25.8471 28.4051 26.25 27.908 26.25C27.411 26.25 27.008 25.8471 27.008 25.35C27.008 24.8529 27.411 24.45 27.908 24.45C28.4051 24.45 28.808 24.8529 28.808 25.35Z" fill="#101623"/>
<path d="M14.508 25.35C14.508 25.8471 14.1051 26.25 13.608 26.25C13.111 26.25 12.708 25.8471 12.708 25.35C12.708 24.8529 13.111 24.45 13.608 24.45C14.1051 24.45 14.508 24.8529 14.508 25.35Z" fill="#101623"/>
<path d="M28.808 21.75C28.808 22.2471 28.4051 22.65 27.908 22.65C27.411 22.65 27.008 22.2471 27.008 21.75C27.008 21.2529 27.411 20.85 27.908 20.85C28.4051 20.85 28.808 21.2529 28.808 21.75Z" fill="#101623"/>
<path d="M14.508 21.75C14.508 22.2471 14.1051 22.65 13.608 22.65C13.111 22.65 12.708 22.2471 12.708 21.75C12.708 21.2529 13.111 20.85 13.608 20.85C14.1051 20.85 14.508 21.2529 14.508 21.75Z" fill="#101623"/>
<path d="M28.808 18.15C28.808 18.6471 28.4051 19.05 27.908 19.05C27.411 19.05 27.008 18.6471 27.008 18.15C27.008 17.6529 27.411 17.25 27.908 17.25C28.4051 17.25 28.808 17.6529 28.808 18.15Z" fill="#101623"/>
<path d="M14.508 18.15C14.508 18.6471 14.1051 19.05 13.608 19.05C13.111 19.05 12.708 18.6471 12.708 18.15C12.708 17.6529 13.111 17.25 13.608 17.25C14.1051 17.25 14.508 17.6529 14.508 18.15Z" fill="#101623"/>
<path d="M21.658 18.15C21.658 18.6471 21.2551 19.05 20.758 19.05C20.261 19.05 19.858 18.6471 19.858 18.15C19.858 17.6529 20.261 17.25 20.758 17.25C21.2551 17.25 21.658 17.6529 21.658 18.15Z" fill="#101623"/>
</svg>