<svg width="41" height="40" viewBox="0 0 41 40" fill="none" xmlns="http://www.w3.org/2000/svg">
<path d="M1.88281 27.3001C1.88281 27.3001 2.69397 25.5001 4.42031 25.5001C6.14665 25.5001 6.71539 27.2961 8.43281 27.3001C10.1591 27.304 10.744 25.5001 12.4703 25.5001C14.1967 25.5001 14.7654 27.2961 16.4828 27.3001C18.2091 27.304 18.794 25.5001 20.5203 25.5001C22.2467 25.5001 22.8154 27.2961 24.5328 27.3001C26.2591 27.304 26.844 25.5001 28.5703 25.5001C30.2967 25.5001 30.8654 27.2961 32.5828 27.3001C34.3091 27.304 34.894 25.5001 36.6203 25.5001C38.3467 25.5001 39.1578 27.3001 39.1578 27.3001M1.88281 31.4001C1.88281 31.4001 2.69397 29.6001 4.42031 29.6001C6.14665 29.6001 6.71539 31.3961 8.43281 31.4001C10.1591 31.404 10.744 29.6001 12.4703 29.6001C14.1967 29.6001 14.7654 31.3961 16.4828 31.4001C18.2091 31.404 18.794 29.6001 20.5203 29.6001C22.2467 29.6001 22.8154 31.3961 24.5328 31.4001C26.2591 31.404 26.844 29.6001 28.5703 29.6001C30.2967 29.6001 30.8654 31.3961 32.5828 31.4001C34.3091 31.404 34.894 29.6001 36.6203 29.6001C38.3467 29.6001 39.1578 31.4001 39.1578 31.4001M21.1078 16.875V22.2501H10.6578V16.875M21.1078 16.875H10.6578M21.1078 16.875H22.9328C23.2828 15.6584 22.3778 12.515 15.9578 9.67505C13.5661 10.5834 8.78281 13.295 8.78281 16.875H10.6578M26.7078 22.2501C27.7411 20.5584 29.3728 15.97 27.6328 11.15M27.6328 11.15C28.4828 10.775 30.3378 10.665 30.9578 13.225M27.6328 11.15C26.9995 10.7667 25.5278 10.645 24.7078 13.225M27.6328 11.15C27.8578 8.62505 24.3078 6.25004 22.2078 9.67505M27.6328 11.15C27.0328 8.55005 30.9628 6.51504 32.7828 9.67505" stroke="#101623" stroke-width="1.5" stroke-linecap="round" stroke-linejoin="round"/>
</svg>