<svg width="41" height="40" viewBox="0 0 41 40" fill="none" xmlns="http://www.w3.org/2000/svg">
<path d="M22.6271 11.3229C22.5736 7.35239 19.3389 4.15002 15.3557 4.15002C11.3391 4.15002 8.08301 7.40613 8.08301 11.4227C8.08301 15.4393 11.3391 18.6954 15.3557 18.6954M15.3557 16.6302V20.7605M19.9703 22.5634C20.8425 22.6805 21.7299 22.5987 22.5659 22.324L28.927 28.6851H32.6181V24.994L30.6142 22.99L28.5554 22.8482L28.4135 20.7894L26.257 18.6329C26.9205 16.6182 26.4523 14.3123 24.85 12.71C22.5837 10.4437 18.9093 10.4437 16.643 12.71C16.4598 12.8939 16.289 13.0898 16.1319 13.2964M21.1589 19.0464C21.1589 15.8413 18.5607 13.2432 15.3557 13.2432C12.1507 13.2432 9.55248 15.8413 9.55248 19.0464C9.55248 21.3124 10.8519 23.274 12.7457 24.2294V33.2253L15.3558 35.8354L17.9658 33.2253V30.3914L16.493 28.8353L17.9657 27.2792V24.2295C19.8595 23.274 21.1589 21.3124 21.1589 19.0464Z" stroke="#101623" stroke-width="1.5" stroke-miterlimit="10"/>
</svg>