<svg width="40" height="40" viewBox="0 0 40 40" fill="none" xmlns="http://www.w3.org/2000/svg">
<path d="M1.5498 27.3C1.5498 27.3 2.36097 25.5 4.0873 25.5C5.81364 25.5 6.38238 27.296 8.0998 27.3C9.82614 27.304 10.411 25.5 12.1373 25.5C13.8636 25.5 14.4324 27.296 16.1498 27.3C17.8761 27.304 18.461 25.5 20.1873 25.5C21.9136 25.5 22.4824 27.296 24.1998 27.3C25.9261 27.304 26.511 25.5 28.2373 25.5C29.9636 25.5 30.5324 27.296 32.2498 27.3C33.9761 27.304 34.561 25.5 36.2873 25.5C38.0136 25.5 38.8248 27.3 38.8248 27.3M21.2498 21.775V13.625L15.0498 8.575L8.8498 13.625V21.775H13.2498M21.2498 21.775H16.9248M21.2498 21.775H28.4748M16.9248 21.775V16.375H13.2498V21.775M16.9248 21.775H13.2498M32.8748 21.775H28.4748M28.4748 21.775V13.2M28.4748 7.625C28.4727 7.67261 28.4714 7.7217 28.4708 7.77214M28.4748 7.625C28.4743 7.67261 28.473 7.7217 28.4708 7.77214M28.4748 7.625V8.03534M28.4708 7.77214C28.4699 7.85635 28.4711 7.94429 28.4748 8.03534M28.4708 7.77214C28.4038 9.34583 27.5198 12.225 24.3998 12.225M28.4748 8.03534C28.5398 9.64572 29.3667 12.225 32.3748 12.225M28.4748 8.03534V13.2M28.4748 13.2C28.4831 14.225 29.2748 16.33 32.3748 16.55M28.4748 13.2C28.2998 14.3167 27.2398 16.55 24.3998 16.55M1.5498 31.4C1.5498 31.4 2.36097 29.6 4.0873 29.6C5.81364 29.6 6.38238 31.396 8.0998 31.4C9.82614 31.404 10.411 29.6 12.1373 29.6C13.8636 29.6 14.4324 31.396 16.1498 31.4C17.8761 31.404 18.461 29.6 20.1873 29.6C21.9136 29.6 22.4824 31.396 24.1998 31.4C25.9261 31.404 26.511 29.6 28.2373 29.6C29.9636 29.6 30.5324 31.396 32.2498 31.4C33.9761 31.404 34.561 29.6 36.2873 29.6C38.0136 29.6 38.8248 31.4 38.8248 31.4" stroke="#101623" stroke-width="1.5" stroke-linecap="round" stroke-linejoin="round"/>
</svg>