<svg width="41" height="40" viewBox="0 0 41 40" fill="none" xmlns="http://www.w3.org/2000/svg">
<path d="M6.34131 24.85C7.92793 24.7012 9.29168 24.7314 10.4913 24.8992M10.4913 24.8992C19.5745 26.1694 19.2487 35.3246 35.0163 34.375M10.4913 24.8992C12.2794 22.5612 16.6557 19.0195 23.1413 17.7804M23.1413 17.7804C23.216 17.7661 23.291 17.7522 23.3663 17.7385M23.1413 17.7804C21.4578 16.6443 16.5908 14.8961 9.44131 15.8427M21.2163 10.75L23.3663 9.31667M23.3663 9.31667L28.0413 6.2L32.8845 9.47684M23.3663 9.31667V17.7385M23.3663 9.31667V6.9M23.3663 17.7385C24.6675 17.5024 26.0521 17.3592 27.5163 17.3366M32.8845 17.7804C33.5013 17.89 34.1286 18.021 34.7663 18.175M32.8845 17.7804V9.47684M32.8845 17.7804C31.3993 17.5166 29.9756 17.3774 28.6163 17.3424M32.8845 9.47684L34.7663 10.75M27.5163 17.3366V13.475H28.6163V17.3424M27.5163 17.3366C27.8781 17.331 28.2448 17.3328 28.6163 17.3424M9.44131 15.8427C8.45097 15.9738 7.41684 16.1567 6.34131 16.4M9.44131 15.8427V9.425M9.44131 5.5C9.43728 5.56954 9.43532 5.64328 9.43577 5.72046M9.44131 5.5V5.54681M9.44131 5.5C9.44142 5.5154 9.44142 5.531 9.44131 5.54681M9.43577 5.72046C9.43612 5.78033 9.43792 5.84226 9.44131 5.9059M9.43577 5.72046C9.43911 5.66037 9.44091 5.60237 9.44131 5.54681M9.43577 5.72046C9.36916 6.91974 8.69014 8.95 6.34131 8.95M9.44131 5.9059C9.50586 7.11736 10.149 8.95 12.4163 8.95M9.44131 5.9059V9.425M9.44131 5.9059V5.54681M9.44131 9.425C9.59131 10.2333 10.3963 11.86 12.4163 11.9M9.44131 9.425C9.24131 10.25 8.34131 11.9 6.34131 11.9" stroke="#101623" stroke-width="1.5" stroke-linecap="round" stroke-linejoin="round"/>
</svg>