<svg width="41" height="40" viewBox="0 0 41 40" fill="none" xmlns="http://www.w3.org/2000/svg">
<path d="M10.6578 24.9C10.1078 25.0416 9.13281 25.65 9.13281 27.175C9.13281 28.695 10.1495 29.325 10.6578 29.45M10.6578 24.9C10.1495 24.775 9.13281 24.145 9.13281 22.625C9.13281 21.1 10.1078 20.4916 10.6578 20.35H29.5078C29.9161 20.35 30.7578 21.175 30.7578 22.625C30.7578 24.075 29.9328 24.9 29.5078 24.9M10.6578 24.9H16.2078M29.5078 29.45C29.9328 29.45 30.7578 28.625 30.7578 27.175C30.7578 25.725 29.9161 24.9 29.5078 24.9M29.5078 24.9H23.5078M6.75781 22.625L13.4578 16.15M32.6203 22.625L30.7578 20.7625M13.4578 16.15L19.8203 9.82495L26.1453 16.15M13.4578 16.15H26.1453M26.1453 16.15L30.7578 20.7625M23.5078 33.975H29.5078C29.9328 33.975 30.7578 33.15 30.7578 31.7C30.7578 30.25 29.9161 29.425 29.5078 29.425H23.5078M23.5078 33.975H16.2078M23.5078 33.975V29.425M16.2078 33.975H10.6578C10.1495 33.85 9.13281 33.22 9.13281 31.7C9.13281 30.175 10.1078 29.5666 10.6578 29.425H16.2078M16.2078 33.975V29.425M23.5078 29.425V24.9M16.2078 29.425V24.9M16.2078 24.9V23.35H23.5078V24.9M30.7578 20.7625V13.025" stroke="#101623" stroke-width="1.5" stroke-linecap="round" stroke-linejoin="round"/>
</svg>