<svg width="40" height="40" viewBox="0 0 40 40" fill="none" xmlns="http://www.w3.org/2000/svg">
<path d="M14.8873 22.925V22.175V22.925ZM17.0677 14.95L17.7382 14.6139L17.7381 14.6138L17.0677 14.95ZM19.9748 6.25L20.7102 6.10256C20.6576 5.84035 20.4694 5.62597 20.2162 5.5399C19.963 5.45383 19.6831 5.50911 19.4816 5.68497L19.9748 6.25ZM30.1498 23.65H29.3998H30.1498ZM9.7998 23.65H10.5498H9.7998ZM11.2534 19.3H12.0034C12.0034 18.9819 11.8027 18.6984 11.5027 18.5927C11.2027 18.4869 10.8687 18.5819 10.6692 18.8297L11.2534 19.3ZM20.6274 24.7061L20.1287 25.2663L20.1427 25.2787L20.1573 25.2905L20.6274 24.7061ZM23.9881 29.9514L23.241 30.0172L23.241 30.0172L23.9881 29.9514ZM20.3265 33.7994L20.3403 33.0496L20.3265 33.7994ZM20.1605 24.7061L20.6306 25.2905L20.6428 25.2807L20.6546 25.2704L20.1605 24.7061ZM16.7998 29.9514L16.0524 29.8885L16.0498 29.9199V29.9514L16.7998 29.9514ZM20.3959 24.5L20.8947 23.9399L20.4001 23.4995L19.9018 23.9357L20.3959 24.5ZM14.8873 23.675C16.0494 23.675 17.1643 23.2145 17.9866 22.3942L16.9272 21.3323C16.3865 21.8717 15.6528 22.175 14.8873 22.175V23.675ZM17.9866 22.3942C18.8089 21.5739 19.2712 20.4609 19.2712 19.3H17.7712C17.7712 20.0619 17.4678 20.793 16.9272 21.3323L17.9866 22.3942ZM19.2712 19.3C19.2712 17.0736 18.4179 15.9702 17.7382 14.6139L16.3972 15.2861C17.171 16.8298 17.7712 17.5244 17.7712 19.3H19.2712ZM17.7381 14.6138C17.0451 13.2318 16.9869 11.9756 17.4301 10.7475C17.886 9.48417 18.8965 8.1867 20.468 6.81503L19.4816 5.68497C17.8203 7.135 16.5982 8.63385 16.0192 10.2383C15.4274 11.8779 15.532 13.5608 16.3972 15.2862L17.7381 14.6138ZM19.2394 6.39744C20.0024 10.2029 22.282 13.8358 25.3213 16.2612L26.2569 15.0888C23.4819 12.8742 21.4008 9.54705 20.7102 6.10256L19.2394 6.39744ZM25.3213 16.2612C28.0937 18.4737 29.3998 21.0287 29.3998 23.65H30.8998C30.8998 20.4713 29.2987 17.5163 26.2569 15.0888L25.3213 16.2612ZM29.3998 23.65C29.3998 24.8842 29.1561 26.1063 28.6826 27.2466L30.0679 27.8218C30.6171 26.4993 30.8998 25.0817 30.8998 23.65H29.3998ZM28.6826 27.2466C28.2091 28.3869 27.515 29.4232 26.6399 30.2962L27.6993 31.3581C28.7139 30.346 29.5188 29.1444 30.0679 27.8218L28.6826 27.2466ZM26.6399 30.2962C25.7648 31.1691 24.7258 31.8617 23.5822 32.3342L24.155 33.7205C25.4804 33.1729 26.6847 32.3702 27.6993 31.3581L26.6399 30.2962ZM23.5822 32.3342C22.4386 32.8068 21.2128 33.05 19.9748 33.05V34.55C21.4092 34.55 22.8297 34.2682 24.155 33.7205L23.5822 32.3342ZM19.9748 33.05C18.7368 33.05 17.511 32.8068 16.3674 32.3342L15.7946 33.7205C17.1199 34.2682 18.5404 34.55 19.9748 34.55V33.05ZM16.3674 32.3342C15.2238 31.8617 14.1848 31.1691 13.3097 30.2962L12.2503 31.3581C13.2649 32.3702 14.4692 33.1729 15.7946 33.7205L16.3674 32.3342ZM13.3097 30.2962C12.4346 29.4232 11.7405 28.3869 11.267 27.2466L9.88167 27.8218C10.4309 29.1444 11.2357 30.346 12.2503 31.3581L13.3097 30.2962ZM11.267 27.2466C10.7935 26.1063 10.5498 24.8842 10.5498 23.65H9.0498C9.0498 25.0817 9.33249 26.4993 9.88167 27.8218L11.267 27.2466ZM10.5498 23.65C10.5498 22.1439 11.124 20.6567 11.8376 19.7703L10.6692 18.8297C9.7344 19.9907 9.0498 21.8124 9.0498 23.65H10.5498ZM10.5034 19.3C10.5034 20.4609 10.9657 21.5739 11.7881 22.3942L12.8474 21.3323C12.3068 20.793 12.0034 20.0619 12.0034 19.3H10.5034ZM11.7881 22.3942C12.6103 23.2145 13.7252 23.675 14.8873 23.675V22.175C14.1218 22.175 13.3881 21.8717 12.8474 21.3323L11.7881 22.3942ZM20.1573 25.2905C20.8638 25.8589 21.6095 26.6298 22.1937 27.4794C22.7831 28.3365 23.1706 29.2187 23.241 30.0172L24.7352 29.8855C24.6336 28.7328 24.0987 27.6022 23.4297 26.6294C22.7555 25.649 21.9069 24.773 21.0976 24.1218L20.1573 25.2905ZM23.241 30.0172C23.3737 31.5226 21.9824 33.08 20.3403 33.0496L20.3126 34.5493C22.842 34.5962 24.9465 32.2828 24.7352 29.8855L23.241 30.0172ZM19.6903 24.1218C18.8856 24.7693 18.0358 25.6279 17.3592 26.6026C16.6867 27.5715 16.1522 28.7034 16.0524 29.8885L17.5472 30.0143C17.6171 29.1838 18.0051 28.3028 18.5915 27.4579C19.1739 26.6188 19.9196 25.8626 20.6306 25.2905L19.6903 24.1218ZM16.0498 29.9514C16.0498 31.26 16.474 32.4035 17.2458 33.2315C18.0194 34.0614 19.099 34.5268 20.3126 34.5493L20.3403 33.0496C19.504 33.0341 18.8202 32.7207 18.343 32.2087C17.864 31.6948 17.5498 30.9333 17.5498 29.9514L16.0498 29.9514ZM20.6546 25.2704L20.89 25.0642L19.9018 23.9357L19.6664 24.1419L20.6546 25.2704ZM19.8972 25.0601L20.1287 25.2663L21.1262 24.146L20.8947 23.9399L19.8972 25.0601Z" fill="#101623"/>
</svg>