<svg width="218" height="60" viewBox="0 0 218 60" fill="none" xmlns="http://www.w3.org/2000/svg">
<g clip-path="url(#clip0_429_13963)">
<path d="M8.87873 20.6345C8.53007 20.6345 8.15455 20.7939 7.99366 21.1393L0.0835757 36.5495C-0.238556 37.24 0.431874 37.7981 1.04891 37.7981C1.37069 37.7981 1.66559 37.6653 1.85335 37.3199L3.83742 33.5206H13.92L15.8507 37.2933C16.0385 37.6653 16.3868 37.7981 16.7354 37.7981C17.4058 37.7981 18.0225 37.2666 17.6474 36.5228L9.73692 21.1393C9.54915 20.7939 9.22738 20.6345 8.87873 20.6345ZM8.87873 23.4776L13.0887 31.8466H4.64186L8.87873 23.4776Z" fill="#101623"/>
<path d="M40.2799 21.4581L33.7905 31.5544L27.2478 21.4847C27.0332 21.0864 26.6846 20.9003 26.3628 20.9003C25.8801 20.9003 25.4243 21.2987 25.4243 21.963V36.8416C25.4243 37.4793 25.907 37.7981 26.4165 37.7981C26.8992 37.7981 27.3819 37.4793 27.3819 36.8416V25.2045L32.8521 33.6267C33.3348 34.3705 34.2198 34.3705 34.7025 33.6267L40.1727 25.1512V36.8416C40.1727 37.4793 40.6554 37.7981 41.1646 37.7981C41.6476 37.7981 42.1303 37.4793 42.1303 36.8416V21.9363C42.1303 21.2721 41.701 20.9003 41.2183 20.9003C40.8697 20.9003 40.521 21.0597 40.2799 21.4581Z" fill="#101623"/>
<path d="M58.6749 20.6345C58.3262 20.6345 57.9507 20.7939 57.7898 21.1393L49.8797 36.5495C49.5576 37.24 50.228 37.7981 50.8451 37.7981C51.1668 37.7981 51.4617 37.6653 51.6495 37.3199L53.6336 33.5206H63.7162L65.6468 37.2933C65.8346 37.6653 66.1829 37.7981 66.5316 37.7981C67.202 37.7981 67.8187 37.2666 67.4435 36.5228L59.5331 21.1393C59.3453 20.7939 59.0235 20.6345 58.6749 20.6345ZM58.6749 23.4776L62.8849 31.8466H54.438L58.6749 23.4776Z" fill="#101623"/>
<path d="M77.124 31.8998H82.3262L87.5016 37.4526C87.7162 37.6919 87.9842 37.7981 88.2254 37.7981C88.9496 37.7981 89.5931 36.9211 88.8424 36.1773L84.7396 31.7937C88.038 31.2355 89.5125 29.296 89.5125 26.6126C89.5125 23.5038 87.1529 20.9003 82.514 20.9003H76.1587C75.5689 20.9003 75.1665 21.2721 75.1665 21.8302V36.8949C75.1665 37.4793 75.6492 37.7981 76.1318 37.7981C76.6414 37.7981 77.124 37.4793 77.124 36.8682V31.8998ZM77.124 30.2258V22.6805H82.5409C85.6512 22.6805 87.5016 24.434 87.5284 26.7187C87.5284 28.6583 85.9998 30.2258 82.5409 30.2258H77.124Z" fill="#101623"/>
<path d="M104.583 20.6345C104.234 20.6345 103.858 20.7939 103.698 21.1393L95.7874 36.5495C95.4653 37.24 96.1357 37.7981 96.7528 37.7981C97.0745 37.7981 97.3694 37.6653 97.5572 37.3199L99.5413 33.5206H109.624L111.555 37.2933C111.742 37.6653 112.091 37.7981 112.439 37.7981C113.11 37.7981 113.726 37.2666 113.351 36.5228L105.441 21.1393C105.253 20.7939 104.931 20.6345 104.583 20.6345ZM104.583 23.4776L108.793 31.8466H100.346L104.583 23.4776Z" fill="#101623"/>
<path d="M133.168 21.7503V30.9433L133.436 34.9553L123.112 21.5114C122.844 21.1126 122.415 20.9003 122.013 20.9003C121.449 20.9003 120.94 21.2987 120.94 22.0691V36.815C120.94 37.4793 121.449 37.7981 121.959 37.7981C122.469 37.7981 122.978 37.4793 122.978 36.815V27.6752L122.763 24.0087L132.792 37.1871C133.033 37.5854 133.516 37.7981 133.972 37.7981C134.589 37.7981 135.206 37.426 135.206 36.6556V21.7503C135.206 21.1659 134.696 20.9003 134.213 20.9003C133.677 20.9003 133.168 21.1925 133.168 21.7503Z" fill="#101623"/>
<path d="M177.063 20.6345C173.47 20.6345 168.268 23.0257 168.268 29.11C168.268 34.3177 172.344 38.0637 176.902 38.0637C179.45 38.0637 182.265 36.8417 183.74 34.7693C184.437 33.7862 182.801 32.8297 182.212 33.7067C180.951 35.3008 179.02 36.2306 176.956 36.2306C173.282 36.2306 170.171 33.1485 170.171 29.1366C170.171 23.9026 174.247 22.4413 177.116 22.4413C178.913 22.4413 180.549 22.9461 181.997 24.4604C182.748 25.2574 184.169 24.1682 183.364 23.2649C181.648 21.4582 179.503 20.6345 177.063 20.6345Z" fill="#101623"/>
<path d="M187.961 37.8107C188.36 37.8107 188.621 37.5392 188.621 37.1692C188.621 36.7989 188.36 36.5277 187.961 36.5277C187.563 36.5277 187.301 36.7989 187.301 37.1692C187.301 37.5392 187.563 37.8107 187.961 37.8107Z" fill="#FD993A"/>
<path d="M194.726 37.7366H195.535L196.432 35.5648H200.965L201.874 37.7366H202.671L199.059 29.0993H198.337L194.726 37.7366ZM196.731 34.8739L198.698 30.1234L200.678 34.8739H196.731Z" fill="#FD993A"/>
<path d="M209.347 37.7366H210.107V30.4811L213.369 35.3304H213.992L217.255 30.4811V37.7366H218.002V29.0993H217.305L213.681 34.5039L210.057 29.0993H209.347V37.7366Z" fill="#FD993A"/>
<mask id="mask0_429_13963" style="mask-type:luminance" maskUnits="userSpaceOnUse" x="142" y="31" width="8" height="8">
<path d="M142.913 31.5346H149.605V38.1655H142.913V31.5346Z" fill="white"/>
</mask>
<g mask="url(#mask0_429_13963)">
<mask id="mask1_429_13963" style="mask-type:luminance" maskUnits="userSpaceOnUse" x="142" y="31" width="8" height="8">
<path d="M143.358 31.5346H149.159C149.405 31.5346 149.605 31.7326 149.605 31.9761V37.724C149.605 37.9679 149.405 38.1655 149.159 38.1655H143.358C143.112 38.1655 142.913 37.9679 142.913 37.724V31.9761C142.913 31.7326 143.112 31.5346 143.358 31.5346Z" fill="white"/>
</mask>
<g mask="url(#mask1_429_13963)">
<path d="M142.913 31.5346H149.605V38.1655H142.913V31.5346Z" fill="#101623"/>
</g>
</g>
<mask id="mask2_429_13963" style="mask-type:luminance" maskUnits="userSpaceOnUse" x="153" y="31" width="8" height="8">
<path d="M153.828 31.5346H160.521V38.1655H153.828V31.5346Z" fill="white"/>
</mask>
<g mask="url(#mask2_429_13963)">
<mask id="mask3_429_13963" style="mask-type:luminance" maskUnits="userSpaceOnUse" x="153" y="31" width="8" height="8">
<path d="M154.274 31.5346H160.075C160.321 31.5346 160.521 31.7326 160.521 31.9761V37.724C160.521 37.9679 160.321 38.1655 160.075 38.1655H154.274C154.028 38.1655 153.828 37.9679 153.828 37.724V31.9761C153.828 31.7326 154.028 31.5346 154.274 31.5346Z" fill="white"/>
</mask>
<g mask="url(#mask3_429_13963)">
<path d="M153.828 31.5346H160.521V38.1655H153.828V31.5346Z" fill="#101623"/>
</g>
</g>
<mask id="mask4_429_13963" style="mask-type:luminance" maskUnits="userSpaceOnUse" x="142" y="20" width="8" height="8">
<path d="M142.913 20.7189H149.605V27.3498H142.913V20.7189Z" fill="white"/>
</mask>
<g mask="url(#mask4_429_13963)">
<mask id="mask5_429_13963" style="mask-type:luminance" maskUnits="userSpaceOnUse" x="142" y="20" width="8" height="8">
<path d="M143.358 20.7189H149.159C149.405 20.7189 149.605 20.9165 149.605 21.1604V26.9083C149.605 27.1522 149.405 27.3498 149.159 27.3498H143.358C143.112 27.3498 142.913 27.1522 142.913 26.9083V21.1604C142.913 20.9165 143.112 20.7189 143.358 20.7189Z" fill="white"/>
</mask>
<g mask="url(#mask5_429_13963)">
<path d="M142.913 20.7189H149.605V27.3498H142.913V20.7189Z" fill="#FD993A"/>
</g>
</g>
<mask id="mask6_429_13963" style="mask-type:luminance" maskUnits="userSpaceOnUse" x="153" y="20" width="8" height="8">
<path d="M153.828 20.7189H160.521V27.3498H153.828V20.7189Z" fill="white"/>
</mask>
<g mask="url(#mask6_429_13963)">
<mask id="mask7_429_13963" style="mask-type:luminance" maskUnits="userSpaceOnUse" x="153" y="20" width="8" height="8">
<path d="M154.274 20.7189H160.075C160.321 20.7189 160.521 20.9165 160.521 21.1604V26.9083C160.521 27.1522 160.321 27.3498 160.075 27.3498H154.274C154.028 27.3498 153.828 27.1522 153.828 26.9083V21.1604C153.828 20.9165 154.028 20.7189 154.274 20.7189Z" fill="white"/>
</mask>
<g mask="url(#mask7_429_13963)">
<path d="M153.828 20.7189H160.521V27.3498H153.828V20.7189Z" fill="#101623"/>
</g>
</g>
<mask id="mask8_429_13963" style="mask-type:luminance" maskUnits="userSpaceOnUse" x="135" y="9" width="34" height="10">
<path d="M135.405 9.98865H168.057V18.8671H135.405V9.98865Z" fill="white"/>
</mask>
<g mask="url(#mask8_429_13963)">
<path d="M151.731 11.3835L168.057 18.8612L151.794 10.0476L151.767 9.99402L151.731 10.0133L151.696 9.99402L151.668 10.0476L135.405 18.8612L151.731 11.3835Z" fill="#FD993A"/>
</g>
<path d="M90.9141 46.0989V46.764H88.2464V46.0989H90.9141ZM88.4604 44.0668V48.9332H87.5942V44.0668H88.4604ZM91.5801 44.0668V48.9332H90.7174V44.0668H91.5801Z" fill="#FD993A"/>
<path d="M95.479 44.7152L93.9778 48.9332H93.0702L94.9613 44.0668H95.5411L95.479 44.7152ZM96.7352 48.9332L95.2305 44.7152L95.1649 44.0668H95.7482L97.6462 48.9332H96.7352ZM96.6627 47.1283V47.7934H93.9295V47.1283H96.6627Z" fill="#FD993A"/>
<path d="M101.7 47.6798C101.7 47.5795 101.684 47.4904 101.652 47.4124C101.622 47.3344 101.568 47.2631 101.49 47.1985C101.412 47.1339 101.301 47.0715 101.159 47.0114C101.018 46.949 100.839 46.8855 100.62 46.8209C100.381 46.7496 100.16 46.6705 99.9576 46.5836C99.7574 46.4944 99.5826 46.3919 99.433 46.2761C99.2835 46.158 99.1673 46.0232 99.0845 45.8717C99.0017 45.7179 98.9602 45.5408 98.9602 45.3402C98.9602 45.1419 99.0028 44.9615 99.0879 44.7988C99.1754 44.6361 99.2984 44.4958 99.4572 44.3777C99.6182 44.2574 99.8081 44.1649 100.027 44.1003C100.245 44.0334 100.487 44 100.751 44C101.124 44 101.445 44.0668 101.714 44.2005C101.986 44.3342 102.194 44.5136 102.339 44.7386C102.486 44.9637 102.56 45.2121 102.56 45.484H101.7C101.7 45.3235 101.665 45.182 101.593 45.0595C101.524 44.9347 101.419 44.8367 101.276 44.7654C101.136 44.6941 100.957 44.6584 100.741 44.6584C100.536 44.6584 100.366 44.6885 100.23 44.7487C100.094 44.8088 99.9933 44.8902 99.9265 44.9926C99.8598 45.0951 99.8265 45.211 99.8265 45.3402C99.8265 45.4316 99.8483 45.5152 99.892 45.5909C99.9357 45.6644 100.002 45.7335 100.092 45.7981C100.182 45.8605 100.295 45.9196 100.43 45.9753C100.566 46.031 100.726 46.0844 100.91 46.1357C101.188 46.2159 101.431 46.305 101.638 46.4031C101.845 46.4989 102.018 46.6081 102.156 46.7306C102.294 46.8532 102.397 46.9924 102.466 47.1484C102.536 47.3021 102.57 47.4771 102.57 47.6731C102.57 47.8781 102.527 48.0631 102.442 48.2279C102.357 48.3906 102.235 48.5299 102.077 48.6457C101.92 48.7594 101.731 48.8474 101.511 48.9098C101.292 48.9699 101.048 49 100.779 49C100.537 49 100.299 48.9688 100.065 48.9064C99.8322 48.844 99.6205 48.7493 99.4296 48.6223C99.2386 48.4931 99.0868 48.3327 98.9741 48.141C98.8613 47.9472 98.805 47.721 98.805 47.4626H99.6712C99.6712 47.6208 99.6988 47.7556 99.754 47.867C99.8115 47.9784 99.8909 48.0697 99.9921 48.141C100.093 48.2101 100.211 48.2614 100.344 48.2948C100.48 48.3282 100.625 48.3449 100.779 48.3449C100.981 48.3449 101.151 48.3171 101.286 48.2614C101.424 48.2057 101.528 48.1277 101.597 48.0274C101.666 47.9271 101.7 47.8113 101.7 47.6798Z" fill="#FD993A"/>
<path d="M107.152 47.3489H108.015C107.987 47.6676 107.895 47.9516 107.739 48.2012C107.582 48.4485 107.363 48.6435 107.08 48.7861C106.797 48.9287 106.453 49 106.048 49C105.737 49 105.458 48.9465 105.209 48.8396C104.961 48.7304 104.748 48.5766 104.571 48.3783C104.394 48.1778 104.258 47.9361 104.164 47.6531C104.072 47.3701 104.026 47.0537 104.026 46.7039V46.2995C104.026 45.9496 104.073 45.6332 104.167 45.3503C104.264 45.0673 104.402 44.8255 104.581 44.625C104.761 44.4222 104.976 44.2674 105.226 44.1604C105.48 44.0535 105.764 44 106.079 44C106.479 44 106.817 44.0713 107.094 44.2139C107.37 44.3565 107.584 44.5537 107.735 44.8055C107.89 45.0573 107.984 45.3458 108.018 45.6711H107.156C107.133 45.4617 107.082 45.2823 107.004 45.133C106.928 44.9837 106.815 44.8701 106.666 44.7921C106.516 44.7119 106.32 44.6718 106.079 44.6718C105.881 44.6718 105.708 44.7074 105.561 44.7787C105.414 44.85 105.291 44.9548 105.192 45.0929C105.093 45.2311 105.018 45.4015 104.968 45.6043C104.919 45.8048 104.895 46.0343 104.895 46.2928V46.7039C104.895 46.949 104.917 47.1718 104.961 47.3723C105.007 47.5706 105.076 47.7411 105.168 47.8837C105.262 48.0263 105.382 48.1366 105.527 48.2146C105.672 48.2926 105.845 48.3316 106.048 48.3316C106.294 48.3316 106.493 48.2937 106.645 48.2179C106.799 48.1422 106.915 48.0319 106.993 47.887C107.074 47.74 107.127 47.5606 107.152 47.3489Z" fill="#FD993A"/>
<path d="M112.939 48.268V48.9332H110.271V48.268H112.939ZM110.516 44.0668V48.9332H109.65V44.0668H110.516ZM112.59 46.0989V46.754H110.271V46.0989H112.59ZM112.921 44.0668V44.7353H110.271V44.0668H112.921Z" fill="#FD993A"/>
<path d="M114.446 48.5321C114.446 48.4073 114.49 48.3026 114.577 48.2179C114.665 48.131 114.783 48.0876 114.933 48.0876C115.084 48.0876 115.203 48.131 115.288 48.2179C115.375 48.3026 115.419 48.4073 115.419 48.5321C115.419 48.6569 115.375 48.7616 115.288 48.8463C115.203 48.9309 115.084 48.9733 114.933 48.9733C114.783 48.9733 114.665 48.9309 114.577 48.8463C114.49 48.7616 114.446 48.6569 114.446 48.5321Z" fill="#FD993A"/>
<path d="M119.266 44.7152L117.765 48.9332H116.857L118.749 44.0668H119.328L119.266 44.7152ZM120.522 48.9332L119.018 44.7152L118.952 44.0668H119.535L121.434 48.9332H120.522ZM120.45 47.1283V47.7934H117.717V47.1283H120.45Z" fill="#FD993A"/>
<path d="M123.196 44.0668H123.969L125.422 47.8202L126.872 44.0668H127.645L125.726 48.9332H125.111L123.196 44.0668ZM122.844 44.0668H123.579L123.707 47.3155V48.9332H122.844V44.0668ZM127.261 44.0668H128V48.9332H127.134V47.3155L127.261 44.0668Z" fill="#FD993A"/>
<path d="M76.729 46.5936H75.314L75.3071 46.246H76.5254C76.7738 46.246 76.9855 46.2115 77.1603 46.1424C77.3352 46.0733 77.4675 45.9708 77.5572 45.8349C77.6492 45.6967 77.6953 45.5274 77.6953 45.3269C77.6953 45.1219 77.6504 44.9525 77.5607 44.8189C77.4709 44.6829 77.3363 44.5827 77.1569 44.518C76.9774 44.4534 76.752 44.4211 76.4805 44.4211H75.4245V48.9332H75V44.0668H76.4805C76.7359 44.0668 76.9648 44.0914 77.1672 44.1404C77.3697 44.1894 77.5423 44.2663 77.6849 44.371C77.8275 44.4757 77.9357 44.6083 78.0093 44.7687C78.0852 44.9269 78.1232 45.1163 78.1232 45.3369C78.1232 45.5374 78.0772 45.719 77.9851 45.8817C77.8931 46.0421 77.7631 46.1736 77.5952 46.2761C77.4295 46.3763 77.2305 46.4387 76.9981 46.4632L76.729 46.5936ZM76.6979 48.9332H75.1795L75.3969 48.5822H76.6979C76.9464 48.5822 77.158 48.5421 77.3329 48.4619C77.5101 48.3795 77.6458 48.2625 77.7401 48.111C77.8344 47.9594 77.8816 47.779 77.8816 47.5695C77.8816 47.3846 77.8402 47.2186 77.7574 47.0715C77.6746 46.9245 77.548 46.8086 77.3778 46.7239C77.2075 46.637 76.9912 46.5936 76.729 46.5936H75.849L75.8559 46.246H77.1017L77.1776 46.3697C77.4031 46.3919 77.5998 46.4599 77.7677 46.5735C77.938 46.6849 78.0691 46.8264 78.1611 46.998C78.2555 47.1696 78.3026 47.3578 78.3026 47.5628C78.3026 47.857 78.2348 48.1065 78.099 48.3115C77.9656 48.5143 77.7781 48.6691 77.5365 48.7761C77.2972 48.8808 77.0177 48.9332 76.6979 48.9332Z" fill="#FD993A"/>
<path d="M79.9376 44.0668L81.4595 46.7172L82.9952 44.0668H83.4853L81.6735 47.0983V48.9332H81.249V47.0983L79.4337 44.0668H79.9376Z" fill="#FD993A"/>
</g>
<defs>
<clipPath id="clip0_429_13963">
<rect width="218" height="60" fill="white"/>
</clipPath>
</defs>
</svg>